<svg width="45" height="44" viewBox="0 0 45 44" fill="none" xmlns="http://www.w3.org/2000/svg">
<path d="M38.0833 13.3425L22.4999 21.9999M22.4999 21.9999L6.91661 13.3425M22.4999 21.9999L22.5 39.4166M39 29.4407V14.5593C39 13.9311 39 13.617 38.9074 13.3369C38.8256 13.0891 38.6917 12.8616 38.5148 12.6697C38.3149 12.4527 38.0404 12.3002 37.4912 11.9951L23.9246 4.45807C23.4046 4.16921 23.1446 4.02478 22.8693 3.96816C22.6257 3.91804 22.3743 3.91804 22.1307 3.96816C21.8554 4.02478 21.5954 4.16921 21.0754 4.45807L7.50878 11.9951C6.95965 12.3002 6.68509 12.4527 6.48516 12.6697C6.30829 12.8616 6.17444 13.0891 6.09256 13.3369C6 13.617 6 13.9311 6 14.5593V29.4407C6 30.0688 6 30.3829 6.09256 30.6631C6.17444 30.9109 6.30829 31.1384 6.48516 31.3303C6.68509 31.5473 6.95965 31.6998 7.50878 32.0049L21.0755 39.5419C21.5954 39.8308 21.8554 39.9752 22.1307 40.0318C22.3743 40.0819 22.6257 40.0819 22.8693 40.0318C23.1446 39.9752 23.4046 39.8308 23.9246 39.5419L37.4912 32.0049C38.0404 31.6998 38.3149 31.5473 38.5148 31.3303C38.6917 31.1384 38.8256 30.9109 38.9074 30.6631C39 30.3829 39 30.0688 39 29.4407Z" stroke="#9D8972" stroke-width="3.66667" stroke-linecap="round" stroke-linejoin="round"/>
</svg>
