<svg width="20" height="20" viewBox="0 0 20 20" fill="none" xmlns="http://www.w3.org/2000/svg">
<g clip-path="url(#clip0_164_1639)">
<path d="M9.99935 12.5C11.3801 12.5 12.4993 11.3807 12.4993 9.99999C12.4993 8.61928 11.3801 7.49999 9.99935 7.49999C8.61864 7.49999 7.49935 8.61928 7.49935 9.99999C7.49935 11.3807 8.61864 12.5 9.99935 12.5Z" stroke="#A7AFBA" stroke-width="1.66667" stroke-linecap="round" stroke-linejoin="round"/>
<path d="M15.6054 12.2727C15.5046 12.5012 15.4745 12.7547 15.519 13.0004C15.5636 13.2462 15.6808 13.473 15.8554 13.6515L15.9009 13.697C16.0417 13.8377 16.1535 14.0048 16.2297 14.1887C16.306 14.3727 16.3452 14.5698 16.3452 14.7689C16.3452 14.968 16.306 15.1652 16.2297 15.3491C16.1535 15.5331 16.0417 15.7002 15.9009 15.8409C15.7601 15.9818 15.593 16.0935 15.4091 16.1698C15.2252 16.246 15.028 16.2853 14.8289 16.2853C14.6298 16.2853 14.4326 16.246 14.2487 16.1698C14.0647 16.0935 13.8976 15.9818 13.7569 15.8409L13.7115 15.7954C13.5329 15.6208 13.3062 15.5036 13.0604 15.4591C12.8146 15.4145 12.5612 15.4446 12.3327 15.5454C12.1086 15.6415 11.9175 15.8009 11.7829 16.0042C11.6483 16.2074 11.5761 16.4456 11.5751 16.6894V16.8182C11.5751 17.22 11.4155 17.6054 11.1313 17.8895C10.8472 18.1737 10.4618 18.3333 10.06 18.3333C9.65811 18.3333 9.27273 18.1737 8.98858 17.8895C8.70444 17.6054 8.5448 17.22 8.5448 16.8182V16.75C8.53894 16.4992 8.45777 16.256 8.31186 16.052C8.16594 15.848 7.96203 15.6926 7.72662 15.606C7.49812 15.5052 7.24466 15.4751 6.9989 15.5197C6.75315 15.5642 6.52638 15.6814 6.34783 15.8561L6.30238 15.9015C6.16166 16.0424 5.99456 16.1541 5.81062 16.2304C5.62669 16.3066 5.42952 16.3459 5.23041 16.3459C5.0313 16.3459 4.83413 16.3066 4.6502 16.2304C4.46626 16.1541 4.29916 16.0424 4.15844 15.9015C4.01757 15.7608 3.90581 15.5937 3.82956 15.4097C3.75331 15.2258 3.71407 15.0286 3.71407 14.8295C3.71407 14.6304 3.75331 14.4333 3.82956 14.2493C3.90581 14.0654 4.01757 13.8983 4.15844 13.7576L4.20389 13.7121C4.37854 13.5336 4.4957 13.3068 4.54026 13.061C4.58482 12.8153 4.55474 12.5618 4.45389 12.3333C4.35786 12.1093 4.19841 11.9182 3.99516 11.7836C3.79191 11.649 3.55373 11.5767 3.30996 11.5757H3.18117C2.77932 11.5757 2.39394 11.4161 2.10979 11.132C1.82565 10.8478 1.66602 10.4624 1.66602 10.0606C1.66602 9.65875 1.82565 9.27337 2.10979 8.98922C2.39394 8.70508 2.77932 8.54544 3.18117 8.54544H3.24935C3.5001 8.53958 3.74329 8.45841 3.9473 8.3125C4.15131 8.16658 4.30671 7.96267 4.39329 7.72726C4.49413 7.49877 4.52422 7.2453 4.47966 6.99954C4.4351 6.75379 4.31794 6.52702 4.14329 6.34847L4.09783 6.30302C3.95696 6.1623 3.8452 5.9952 3.76896 5.81126C3.69271 5.62733 3.65346 5.43016 3.65346 5.23105C3.65346 5.03194 3.69271 4.83477 3.76896 4.65084C3.8452 4.4669 3.95696 4.2998 4.09783 4.15908C4.23855 4.01821 4.40565 3.90645 4.58959 3.8302C4.77353 3.75395 4.97069 3.71471 5.1698 3.71471C5.36892 3.71471 5.56608 3.75395 5.75002 3.8302C5.93395 3.90645 6.10106 4.01821 6.24177 4.15908L6.28723 4.20454C6.46577 4.37918 6.69254 4.49634 6.9383 4.5409C7.18405 4.58546 7.43752 4.55538 7.66602 4.45454H7.72662C7.95069 4.3585 8.14179 4.19905 8.27639 3.9958C8.41099 3.79255 8.48322 3.55437 8.4842 3.3106V3.18181C8.4842 2.77996 8.64383 2.39458 8.92798 2.11043C9.21212 1.82629 9.59751 1.66666 9.99935 1.66666C10.4012 1.66666 10.7866 1.82629 11.0707 2.11043C11.3549 2.39458 11.5145 2.77996 11.5145 3.18181V3.24999C11.5155 3.49377 11.5877 3.73194 11.7223 3.93519C11.8569 4.13844 12.048 4.2979 12.2721 4.39393C12.5006 4.49477 12.754 4.52486 12.9998 4.4803C13.2455 4.43574 13.4723 4.31858 13.6509 4.14393L13.6963 4.09847C13.837 3.9576 14.0041 3.84585 14.1881 3.7696C14.372 3.69335 14.5692 3.6541 14.7683 3.6541C14.9674 3.6541 15.1646 3.69335 15.3485 3.7696C15.5324 3.84585 15.6995 3.9576 15.8403 4.09847C15.9811 4.23919 16.0929 4.4063 16.1691 4.59023C16.2454 4.77417 16.2846 4.97133 16.2846 5.17044C16.2846 5.36956 16.2454 5.56672 16.1691 5.75066C16.0929 5.93459 15.9811 6.1017 15.8403 6.24241L15.7948 6.28787C15.6202 6.46641 15.503 6.69318 15.4584 6.93894C15.4139 7.18469 15.444 7.43816 15.5448 7.66666V7.72726C15.6408 7.95133 15.8003 8.14243 16.0035 8.27703C16.2068 8.41163 16.445 8.48387 16.6887 8.48484H16.8175C17.2194 8.48484 17.6048 8.64447 17.8889 8.92862C18.173 9.21276 18.3327 9.59815 18.3327 9.99999C18.3327 10.4018 18.173 10.7872 17.8889 11.0714C17.6048 11.3555 17.2194 11.5151 16.8175 11.5151H16.7493C16.5056 11.5161 16.2674 11.5883 16.0641 11.723C15.8609 11.8576 15.7014 12.0486 15.6054 12.2727Z" stroke="#A7AFBA" stroke-width="1.66667" stroke-linecap="round" stroke-linejoin="round"/>
</g>
<defs>
<clipPath id="clip0_164_1639">
<rect width="20" height="20" fill="white"/>
</clipPath>
</defs>
</svg>
