<svg width="25" height="24" viewBox="0 0 25 24" fill="none" xmlns="http://www.w3.org/2000/svg">
<path d="M5.65028 19.4384C6.25861 18.0052 7.67891 17 9.33398 17H15.334C16.9891 17 18.4094 18.0052 19.0177 19.4384M16.334 9.5C16.334 11.7091 14.5431 13.5 12.334 13.5C10.1248 13.5 8.33398 11.7091 8.33398 9.5C8.33398 7.29086 10.1248 5.5 12.334 5.5C14.5431 5.5 16.334 7.29086 16.334 9.5ZM22.334 12C22.334 17.5228 17.8568 22 12.334 22C6.81114 22 2.33398 17.5228 2.33398 12C2.33398 6.47715 6.81114 2 12.334 2C17.8568 2 22.334 6.47715 22.334 12Z" stroke="black" stroke-width="2" stroke-linecap="round" stroke-linejoin="round"/>
</svg>
